<svg width="1050" height="500" viewBox="0 0 1050 500" fill="none" xmlns="http://www.w3.org/2000/svg">
<rect width="1050" height="500" fill="white"/>
<rect x="426" y="87.3423" width="191" height="63" rx="3" fill="#BCF1B9"/>
<rect x="426" y="87.3423" width="191" height="63" rx="3" stroke="#50C645" stroke-width="2"/>
<path d="M459.585 125.842H455.807L460.714 111.297H465.395L470.302 125.842H466.524L463.108 114.962H462.994L459.585 125.842ZM459.081 120.118H466.979V122.788H459.081V120.118ZM476.27 130.16C475.233 130.16 474.345 130.016 473.607 129.727C472.868 129.438 472.288 129.043 471.867 128.541C471.445 128.039 471.192 127.471 471.107 126.837L474.395 126.652C474.457 126.874 474.57 127.069 474.736 127.234C474.906 127.4 475.127 127.528 475.396 127.618C475.671 127.708 475.993 127.753 476.362 127.753C476.945 127.753 477.425 127.611 477.804 127.327C478.188 127.047 478.379 126.557 478.379 125.856V123.939H478.259C478.121 124.275 477.913 124.576 477.634 124.841C477.354 125.106 477.006 125.314 476.59 125.466C476.178 125.617 475.704 125.693 475.169 125.693C474.374 125.693 473.645 125.508 472.982 125.139C472.324 124.765 471.796 124.187 471.398 123.406C471.005 122.62 470.808 121.609 470.808 120.374C470.808 119.1 471.012 118.051 471.419 117.227C471.826 116.399 472.359 115.785 473.017 115.388C473.68 114.99 474.393 114.791 475.155 114.791C475.728 114.791 476.218 114.891 476.625 115.089C477.037 115.284 477.376 115.535 477.641 115.842C477.906 116.15 478.107 116.47 478.244 116.801H478.344V114.933H481.803V125.885C481.803 126.808 481.571 127.587 481.107 128.222C480.643 128.856 479.994 129.337 479.161 129.663C478.327 129.995 477.364 130.16 476.27 130.16ZM476.377 123.165C476.798 123.165 477.158 123.053 477.456 122.831C477.754 122.608 477.984 122.289 478.145 121.872C478.306 121.455 478.387 120.956 478.387 120.374C478.387 119.782 478.306 119.273 478.145 118.847C477.989 118.416 477.759 118.084 477.456 117.852C477.158 117.62 476.798 117.504 476.377 117.504C475.946 117.504 475.581 117.623 475.283 117.859C474.985 118.096 474.757 118.43 474.601 118.861C474.45 119.287 474.374 119.791 474.374 120.374C474.374 120.956 474.452 121.455 474.608 121.872C474.764 122.289 474.989 122.608 475.283 122.831C475.581 123.053 475.946 123.165 476.377 123.165ZM489.116 126.048C487.975 126.048 486.99 125.823 486.162 125.374C485.338 124.919 484.703 124.273 484.258 123.435C483.818 122.592 483.598 121.59 483.598 120.43C483.598 119.303 483.82 118.319 484.265 117.476C484.711 116.628 485.338 115.97 486.148 115.501C486.957 115.028 487.911 114.791 489.01 114.791C489.786 114.791 490.497 114.912 491.14 115.153C491.784 115.395 492.341 115.752 492.809 116.226C493.278 116.699 493.643 117.284 493.903 117.98C494.164 118.671 494.294 119.464 494.294 120.359V121.226H484.812V119.209H491.062C491.058 118.839 490.97 118.51 490.8 118.222C490.629 117.933 490.395 117.708 490.096 117.547C489.803 117.381 489.464 117.298 489.081 117.298C488.693 117.298 488.345 117.386 488.037 117.561C487.729 117.731 487.485 117.966 487.305 118.264C487.125 118.558 487.031 118.892 487.021 119.266V121.318C487.021 121.763 487.109 122.154 487.284 122.49C487.459 122.821 487.708 123.08 488.03 123.264C488.352 123.449 488.735 123.541 489.18 123.541C489.488 123.541 489.767 123.499 490.018 123.413C490.269 123.328 490.485 123.203 490.665 123.037C490.845 122.871 490.979 122.668 491.069 122.426L494.258 122.518C494.126 123.233 493.835 123.856 493.385 124.386C492.94 124.912 492.355 125.321 491.631 125.615C490.906 125.904 490.068 126.048 489.116 126.048ZM499.541 119.621V125.842H496.068V114.933H499.37V116.936H499.491C499.732 116.268 500.144 115.745 500.727 115.366C501.309 114.983 502.003 114.791 502.808 114.791C503.575 114.791 504.24 114.964 504.803 115.31C505.372 115.651 505.812 116.129 506.124 116.744C506.442 117.355 506.598 118.07 506.593 118.889V125.842H503.12V119.571C503.125 118.965 502.971 118.491 502.659 118.151C502.351 117.81 501.922 117.639 501.373 117.639C501.008 117.639 500.686 117.72 500.407 117.881C500.133 118.037 499.919 118.262 499.768 118.555C499.621 118.849 499.545 119.204 499.541 119.621ZM514.901 114.933V117.49H508.019V114.933H514.901ZM509.461 112.32H512.934V122.412C512.934 122.625 512.967 122.798 513.033 122.93C513.104 123.058 513.206 123.151 513.339 123.207C513.471 123.259 513.63 123.285 513.814 123.285C513.947 123.285 514.087 123.274 514.233 123.25C514.385 123.222 514.499 123.198 514.574 123.179L515.1 125.686C514.934 125.733 514.7 125.793 514.397 125.864C514.099 125.935 513.741 125.98 513.324 125.999C512.51 126.036 511.812 125.942 511.229 125.714C510.652 125.482 510.209 125.123 509.901 124.635C509.598 124.147 509.451 123.534 509.461 122.795V112.32ZM527.703 110.615L523.015 128.03H520.054L524.741 110.615H527.703ZM533.294 125.842V111.297H536.81V122.987H542.861V125.842H533.294ZM544.681 125.842V111.297H548.197V122.987H554.248V125.842H544.681ZM556.068 111.297H560.421L564.115 120.303H564.285L567.978 111.297H572.332V125.842H568.909V116.908H568.788L565.294 125.75H563.106L559.612 116.858H559.491V125.842H556.068V111.297ZM585.519 111.297V125.842H582.01V114.578H581.925L578.672 116.567V113.527L582.259 111.297H585.519Z" fill="#0F631C"/>
<rect x="272.782" y="173.414" width="108" height="108" rx="3" transform="rotate(45 272.782 173.414)" fill="#FFE0AD"/>
<rect x="272.782" y="173.414" width="108" height="108" rx="3" transform="rotate(45 272.782 173.414)" stroke="#DB7501" stroke-width="2"/>
<path d="M223.559 244.727C223.559 246.328 223.251 247.684 222.635 248.797C222.02 249.91 221.186 250.755 220.135 251.332C219.089 251.91 217.915 252.199 216.613 252.199C215.306 252.199 214.129 251.908 213.083 251.325C212.036 250.743 211.205 249.898 210.59 248.79C209.979 247.677 209.674 246.323 209.674 244.727C209.674 243.127 209.979 241.77 210.59 240.658C211.205 239.545 212.036 238.7 213.083 238.122C214.129 237.545 215.306 237.256 216.613 237.256C217.915 237.256 219.089 237.545 220.135 238.122C221.186 238.7 222.02 239.545 222.635 240.658C223.251 241.77 223.559 243.127 223.559 244.727ZM219.965 244.727C219.965 243.78 219.83 242.98 219.56 242.327C219.295 241.673 218.911 241.179 218.409 240.842C217.912 240.506 217.313 240.338 216.613 240.338C215.917 240.338 215.318 240.506 214.816 240.842C214.314 241.179 213.928 241.673 213.658 242.327C213.393 242.98 213.26 243.78 213.26 244.727C213.26 245.674 213.393 246.474 213.658 247.128C213.928 247.781 214.314 248.276 214.816 248.612C215.318 248.948 215.917 249.116 216.613 249.116C217.313 249.116 217.912 248.948 218.409 248.612C218.911 248.276 219.295 247.781 219.56 247.128C219.83 246.474 219.965 245.674 219.965 244.727ZM225.611 252V241.091H228.985V243.08H229.098C229.297 242.36 229.622 241.825 230.071 241.474C230.521 241.119 231.044 240.942 231.641 240.942C231.802 240.942 231.968 240.954 232.138 240.977C232.309 240.996 232.467 241.027 232.614 241.07V244.088C232.448 244.031 232.23 243.986 231.961 243.953C231.695 243.92 231.459 243.903 231.25 243.903C230.838 243.903 230.467 243.996 230.135 244.18C229.809 244.36 229.55 244.614 229.361 244.94C229.176 245.262 229.084 245.641 229.084 246.077V252H225.611ZM238.555 252.206C237.404 252.206 236.417 251.969 235.593 251.496C234.774 251.022 234.144 250.364 233.704 249.521C233.264 248.674 233.044 247.694 233.044 246.581C233.044 245.464 233.264 244.483 233.704 243.641C234.149 242.793 234.781 242.133 235.6 241.659C236.424 241.186 237.407 240.949 238.548 240.949C239.556 240.949 240.435 241.131 241.183 241.496C241.936 241.86 242.523 242.376 242.944 243.044C243.37 243.707 243.595 244.486 243.619 245.381H240.373C240.307 244.822 240.117 244.384 239.805 244.067C239.497 243.75 239.095 243.591 238.598 243.591C238.195 243.591 237.842 243.705 237.539 243.932C237.236 244.154 237 244.486 236.829 244.926C236.663 245.362 236.581 245.902 236.581 246.545C236.581 247.189 236.663 247.734 236.829 248.179C237 248.619 237.236 248.953 237.539 249.18C237.842 249.403 238.195 249.514 238.598 249.514C238.92 249.514 239.204 249.446 239.45 249.308C239.701 249.171 239.907 248.97 240.068 248.705C240.229 248.435 240.331 248.108 240.373 247.724H243.619C243.586 248.624 243.361 249.41 242.944 250.082C242.532 250.755 241.952 251.278 241.204 251.652C240.461 252.021 239.578 252.206 238.555 252.206ZM248.869 245.778V252H245.396V237.455H248.756V243.094H248.876C249.123 242.421 249.525 241.896 250.084 241.517C250.647 241.138 251.336 240.949 252.151 240.949C252.918 240.949 253.585 241.119 254.153 241.46C254.722 241.796 255.162 242.272 255.474 242.888C255.792 243.503 255.948 244.223 255.943 245.047V252H252.47V245.729C252.475 245.123 252.323 244.649 252.016 244.308C251.708 243.967 251.275 243.797 250.716 243.797C250.351 243.797 250.029 243.877 249.75 244.038C249.475 244.195 249.26 244.42 249.104 244.713C248.952 245.007 248.874 245.362 248.869 245.778ZM263.211 252.206C262.069 252.206 261.085 251.981 260.256 251.531C259.432 251.077 258.798 250.43 258.353 249.592C257.912 248.75 257.692 247.748 257.692 246.588C257.692 245.461 257.915 244.476 258.36 243.634C258.805 242.786 259.432 242.128 260.242 241.659C261.051 241.186 262.006 240.949 263.104 240.949C263.881 240.949 264.591 241.07 265.235 241.311C265.879 241.553 266.435 241.91 266.904 242.384C267.372 242.857 267.737 243.442 267.997 244.138C268.258 244.829 268.388 245.622 268.388 246.517V247.384H258.907V245.366H265.157C265.152 244.997 265.064 244.668 264.894 244.379C264.723 244.09 264.489 243.866 264.191 243.705C263.897 243.539 263.559 243.456 263.175 243.456C262.787 243.456 262.439 243.544 262.131 243.719C261.823 243.889 261.579 244.124 261.399 244.422C261.22 244.715 261.125 245.049 261.115 245.423V247.476C261.115 247.921 261.203 248.312 261.378 248.648C261.553 248.979 261.802 249.237 262.124 249.422C262.446 249.607 262.829 249.699 263.274 249.699C263.582 249.699 263.862 249.656 264.113 249.571C264.363 249.486 264.579 249.36 264.759 249.195C264.939 249.029 265.074 248.825 265.164 248.584L268.353 248.676C268.22 249.391 267.929 250.014 267.479 250.544C267.034 251.07 266.449 251.479 265.725 251.773C265 252.062 264.162 252.206 263.211 252.206ZM279.686 244.422L276.497 244.507C276.464 244.28 276.374 244.079 276.227 243.903C276.08 243.723 275.889 243.584 275.652 243.484C275.42 243.38 275.15 243.328 274.842 243.328C274.44 243.328 274.097 243.409 273.812 243.57C273.533 243.731 273.396 243.948 273.401 244.223C273.396 244.436 273.481 244.621 273.656 244.777C273.836 244.933 274.156 245.059 274.615 245.153L276.717 245.551C277.806 245.759 278.616 246.105 279.146 246.588C279.681 247.071 279.951 247.71 279.956 248.506C279.951 249.254 279.729 249.905 279.288 250.459C278.853 251.013 278.256 251.444 277.499 251.751C276.741 252.054 275.874 252.206 274.899 252.206C273.341 252.206 272.113 251.886 271.213 251.247C270.318 250.603 269.807 249.741 269.679 248.662L273.109 248.577C273.185 248.974 273.382 249.277 273.699 249.486C274.016 249.694 274.421 249.798 274.913 249.798C275.358 249.798 275.721 249.715 276 249.55C276.279 249.384 276.421 249.164 276.426 248.889C276.421 248.643 276.312 248.446 276.099 248.3C275.886 248.148 275.553 248.03 275.098 247.945L273.195 247.582C272.101 247.384 271.286 247.017 270.751 246.482C270.216 245.942 269.951 245.255 269.956 244.422C269.951 243.693 270.145 243.07 270.538 242.554C270.931 242.033 271.49 241.635 272.214 241.361C272.939 241.086 273.794 240.949 274.778 240.949C276.256 240.949 277.42 241.259 278.273 241.879C279.125 242.495 279.596 243.342 279.686 244.422ZM287.823 241.091V243.648H280.941V241.091H287.823ZM282.383 238.477H285.856V248.57C285.856 248.783 285.889 248.955 285.956 249.088C286.027 249.216 286.128 249.308 286.261 249.365C286.394 249.417 286.552 249.443 286.737 249.443C286.869 249.443 287.009 249.431 287.156 249.408C287.307 249.379 287.421 249.356 287.497 249.337L288.022 251.844C287.857 251.891 287.622 251.95 287.319 252.021C287.021 252.092 286.663 252.137 286.247 252.156C285.432 252.194 284.734 252.099 284.152 251.872C283.574 251.64 283.131 251.28 282.823 250.793C282.52 250.305 282.374 249.692 282.383 248.953V238.477ZM289.595 252V241.091H292.969V243.08H293.083C293.282 242.36 293.606 241.825 294.056 241.474C294.506 241.119 295.029 240.942 295.625 240.942C295.786 240.942 295.952 240.954 296.122 240.977C296.293 240.996 296.452 241.027 296.598 241.07V244.088C296.433 244.031 296.215 243.986 295.945 243.953C295.68 243.92 295.443 243.903 295.235 243.903C294.823 243.903 294.451 243.996 294.12 244.18C293.793 244.36 293.535 244.614 293.345 244.94C293.161 245.262 293.068 245.641 293.068 246.077V252H289.595ZM300.679 252.185C299.983 252.185 299.365 252.069 298.825 251.837C298.29 251.6 297.866 251.245 297.554 250.771C297.246 250.293 297.092 249.694 297.092 248.974C297.092 248.368 297.198 247.857 297.412 247.44C297.625 247.024 297.918 246.685 298.292 246.425C298.666 246.164 299.097 245.968 299.585 245.835C300.073 245.698 300.593 245.606 301.147 245.558C301.768 245.501 302.267 245.442 302.646 245.381C303.025 245.314 303.299 245.222 303.47 245.104C303.645 244.981 303.733 244.808 303.733 244.585V244.55C303.733 244.185 303.607 243.903 303.356 243.705C303.105 243.506 302.767 243.406 302.341 243.406C301.881 243.406 301.512 243.506 301.233 243.705C300.953 243.903 300.776 244.178 300.7 244.528L297.497 244.415C297.591 243.752 297.835 243.16 298.228 242.639C298.626 242.114 299.171 241.702 299.862 241.403C300.558 241.1 301.394 240.949 302.369 240.949C303.065 240.949 303.707 241.032 304.294 241.197C304.881 241.358 305.392 241.595 305.828 241.908C306.263 242.215 306.6 242.594 306.836 243.044C307.078 243.494 307.198 244.008 307.198 244.585V252H303.931V250.48H303.846C303.652 250.849 303.403 251.162 303.1 251.418C302.802 251.673 302.449 251.865 302.042 251.993C301.64 252.121 301.185 252.185 300.679 252.185ZM301.751 249.912C302.125 249.912 302.461 249.836 302.76 249.685C303.063 249.533 303.304 249.325 303.484 249.06C303.664 248.79 303.754 248.477 303.754 248.122V247.085C303.654 247.137 303.534 247.185 303.392 247.227C303.254 247.27 303.103 247.31 302.937 247.348C302.771 247.386 302.601 247.419 302.426 247.447C302.251 247.476 302.082 247.502 301.921 247.526C301.595 247.578 301.315 247.658 301.083 247.767C300.856 247.876 300.681 248.018 300.558 248.193C300.439 248.364 300.38 248.567 300.38 248.804C300.38 249.164 300.508 249.438 300.764 249.628C301.024 249.817 301.353 249.912 301.751 249.912ZM315.48 241.091V243.648H308.598V241.091H315.48ZM310.039 238.477H313.512V248.57C313.512 248.783 313.546 248.955 313.612 249.088C313.683 249.216 313.785 249.308 313.917 249.365C314.05 249.417 314.208 249.443 314.393 249.443C314.526 249.443 314.665 249.431 314.812 249.408C314.964 249.379 315.077 249.356 315.153 249.337L315.679 251.844C315.513 251.891 315.278 251.95 314.975 252.021C314.677 252.092 314.32 252.137 313.903 252.156C313.089 252.194 312.39 252.099 311.808 251.872C311.23 251.64 310.787 251.28 310.48 250.793C310.177 250.305 310.03 249.692 310.039 248.953V238.477ZM322.227 252.206C321.081 252.206 320.096 251.972 319.272 251.503C318.453 251.029 317.821 250.371 317.376 249.528C316.936 248.681 316.716 247.698 316.716 246.581C316.716 245.459 316.936 244.476 317.376 243.634C317.821 242.786 318.453 242.128 319.272 241.659C320.096 241.186 321.081 240.949 322.227 240.949C323.373 240.949 324.355 241.186 325.174 241.659C325.998 242.128 326.63 242.786 327.071 243.634C327.516 244.476 327.738 245.459 327.738 246.581C327.738 247.698 327.516 248.681 327.071 249.528C326.63 250.371 325.998 251.029 325.174 251.503C324.355 251.972 323.373 252.206 322.227 252.206ZM322.248 249.585C322.665 249.585 323.018 249.457 323.306 249.202C323.595 248.946 323.815 248.591 323.967 248.136C324.123 247.682 324.201 247.156 324.201 246.56C324.201 245.954 324.123 245.423 323.967 244.969C323.815 244.514 323.595 244.159 323.306 243.903C323.018 243.648 322.665 243.52 322.248 243.52C321.817 243.52 321.453 243.648 321.154 243.903C320.861 244.159 320.636 244.514 320.48 244.969C320.328 245.423 320.252 245.954 320.252 246.56C320.252 247.156 320.328 247.682 320.48 248.136C320.636 248.591 320.861 248.946 321.154 249.202C321.453 249.457 321.817 249.585 322.248 249.585ZM329.517 252V241.091H332.891V243.08H333.005C333.203 242.36 333.528 241.825 333.978 241.474C334.427 241.119 334.951 240.942 335.547 240.942C335.708 240.942 335.874 240.954 336.044 240.977C336.215 240.996 336.373 241.027 336.52 241.07V244.088C336.354 244.031 336.137 243.986 335.867 243.953C335.602 243.92 335.365 243.903 335.157 243.903C334.745 243.903 334.373 243.996 334.041 244.18C333.715 244.36 333.457 244.614 333.267 244.94C333.083 245.262 332.99 245.641 332.99 246.077V252H329.517ZM253.838 260.773L249.151 278.187H246.189L250.877 260.773H253.838ZM259.429 276V261.455H262.945V273.145H268.996V276H259.429ZM270.816 276V261.455H274.332V273.145H280.383V276H270.816ZM282.203 261.455H286.557L290.25 270.46H290.42L294.113 261.455H298.467V276H295.044V267.065H294.923L291.429 275.908H289.241L285.747 267.016H285.626V276H282.203V261.455Z" fill="#DB7501"/>
<rect x="925" y="204.637" width="88" height="88" rx="44" fill="#FFC8C0"/>
<rect x="925" y="204.637" width="88" height="88" rx="44" stroke="#DB0801" stroke-width="2"/>
<path d="M965.617 248.364C965.617 249.964 965.309 251.321 964.693 252.434C964.078 253.546 963.244 254.391 962.193 254.969C961.147 255.547 959.973 255.836 958.671 255.836C957.364 255.836 956.187 255.544 955.141 254.962C954.094 254.38 953.263 253.534 952.648 252.426C952.037 251.314 951.732 249.96 951.732 248.364C951.732 246.764 952.037 245.407 952.648 244.294C953.263 243.182 954.094 242.337 955.141 241.759C956.187 241.181 957.364 240.892 958.671 240.892C959.973 240.892 961.147 241.181 962.193 241.759C963.244 242.337 964.078 243.182 964.693 244.294C965.309 245.407 965.617 246.764 965.617 248.364ZM962.023 248.364C962.023 247.417 961.888 246.617 961.618 245.963C961.353 245.31 960.969 244.815 960.468 244.479C959.97 244.143 959.371 243.975 958.671 243.975C957.975 243.975 957.376 244.143 956.874 244.479C956.372 244.815 955.986 245.31 955.716 245.963C955.451 246.617 955.318 247.417 955.318 248.364C955.318 249.311 955.451 250.111 955.716 250.765C955.986 251.418 956.372 251.913 956.874 252.249C957.376 252.585 957.975 252.753 958.671 252.753C959.371 252.753 959.97 252.585 960.468 252.249C960.969 251.913 961.353 251.418 961.618 250.765C961.888 250.111 962.023 249.311 962.023 248.364ZM974.708 250.928V244.728H978.173V255.637H974.864V253.605H974.75C974.509 254.273 974.097 254.803 973.514 255.196C972.937 255.585 972.238 255.779 971.419 255.779C970.676 255.779 970.022 255.608 969.459 255.267C968.896 254.926 968.458 254.451 968.145 253.84C967.833 253.224 967.674 252.505 967.669 251.681V244.728H971.142V250.999C971.147 251.591 971.303 252.057 971.611 252.398C971.919 252.739 972.338 252.909 972.868 252.909C973.214 252.909 973.524 252.834 973.798 252.682C974.078 252.526 974.298 252.301 974.459 252.007C974.625 251.709 974.708 251.349 974.708 250.928ZM986.542 244.728V247.284H979.66V244.728H986.542ZM981.101 242.114H984.574V252.206C984.574 252.419 984.608 252.592 984.674 252.725C984.745 252.853 984.847 252.945 984.979 253.002C985.112 253.054 985.27 253.08 985.455 253.08C985.588 253.08 985.727 253.068 985.874 253.044C986.026 253.016 986.139 252.992 986.215 252.973L986.741 255.48C986.575 255.528 986.34 255.587 986.037 255.658C985.739 255.729 985.382 255.774 984.965 255.793C984.151 255.831 983.452 255.736 982.87 255.509C982.292 255.277 981.849 254.917 981.542 254.429C981.239 253.942 981.092 253.328 981.101 252.59V242.114Z" fill="#DB0801"/>
<rect x="37" y="206" width="88" height="88" rx="44" fill="#FFC8C0"/>
<rect x="37" y="206" width="88" height="88" rx="44" stroke="#DB0801" stroke-width="2"/>
<path d="M76.4173 242.455V257H72.9016V242.455H76.4173ZM82.0973 250.778V257H78.6243V246.091H81.9268V248.094H82.0476C82.2891 247.426 82.701 246.903 83.2834 246.524C83.8658 246.141 84.5594 245.949 85.3643 245.949C86.1314 245.949 86.7966 246.122 87.3601 246.467C87.9283 246.808 88.3686 247.286 88.6811 247.902C88.9983 248.513 89.1546 249.228 89.1499 250.047V257H85.6768V250.729C85.6816 250.123 85.5277 249.649 85.2152 249.308C84.9074 248.967 84.4789 248.797 83.9297 248.797C83.5651 248.797 83.2431 248.877 82.9638 249.038C82.6892 249.195 82.4761 249.42 82.3246 249.713C82.1778 250.007 82.102 250.362 82.0973 250.778Z" fill="#DB0801"/>
<rect x="426" y="217.342" width="191" height="63" rx="3" fill="#BCF1B9"/>
<rect x="426" y="217.342" width="191" height="63" rx="3" stroke="#50C645" stroke-width="2"/>
<path d="M458.179 255.842H454.4L459.308 241.297H463.988L468.896 255.842H465.118L461.702 244.962H461.588L458.179 255.842ZM457.675 250.118H465.572V252.788H457.675V250.118ZM474.864 260.16C473.827 260.16 472.939 260.016 472.2 259.727C471.462 259.438 470.882 259.043 470.46 258.541C470.039 258.039 469.786 257.471 469.7 256.837L472.989 256.652C473.05 256.874 473.164 257.069 473.33 257.234C473.5 257.4 473.72 257.528 473.99 257.618C474.265 257.708 474.587 257.753 474.956 257.753C475.539 257.753 476.019 257.611 476.398 257.327C476.781 257.047 476.973 256.557 476.973 255.856V253.939H476.852C476.715 254.275 476.507 254.576 476.227 254.841C475.948 255.106 475.6 255.314 475.183 255.466C474.771 255.617 474.298 255.693 473.763 255.693C472.968 255.693 472.238 255.508 471.575 255.139C470.917 254.765 470.389 254.187 469.992 253.406C469.599 252.62 469.402 251.609 469.402 250.374C469.402 249.1 469.606 248.051 470.013 247.227C470.42 246.399 470.953 245.785 471.611 245.388C472.274 244.99 472.986 244.791 473.749 244.791C474.322 244.791 474.812 244.891 475.219 245.089C475.631 245.284 475.969 245.535 476.235 245.842C476.5 246.15 476.701 246.47 476.838 246.801H476.938V244.933H480.396V255.885C480.396 256.808 480.164 257.587 479.7 258.222C479.236 258.856 478.588 259.337 477.754 259.663C476.921 259.995 475.958 260.16 474.864 260.16ZM474.97 253.165C475.392 253.165 475.752 253.053 476.05 252.831C476.348 252.608 476.578 252.289 476.739 251.872C476.9 251.455 476.98 250.956 476.98 250.374C476.98 249.782 476.9 249.273 476.739 248.847C476.583 248.416 476.353 248.084 476.05 247.852C475.752 247.62 475.392 247.504 474.97 247.504C474.539 247.504 474.175 247.623 473.877 247.859C473.578 248.096 473.351 248.43 473.195 248.861C473.043 249.287 472.968 249.791 472.968 250.374C472.968 250.956 473.046 251.455 473.202 251.872C473.358 252.289 473.583 252.608 473.877 252.831C474.175 253.053 474.539 253.165 474.97 253.165ZM487.71 256.048C486.569 256.048 485.584 255.823 484.756 255.374C483.932 254.919 483.297 254.273 482.852 253.435C482.412 252.592 482.192 251.59 482.192 250.43C482.192 249.303 482.414 248.319 482.859 247.476C483.304 246.628 483.932 245.97 484.741 245.501C485.551 245.028 486.505 244.791 487.604 244.791C488.38 244.791 489.09 244.912 489.734 245.153C490.378 245.395 490.934 245.752 491.403 246.226C491.872 246.699 492.237 247.284 492.497 247.98C492.757 248.671 492.888 249.464 492.888 250.359V251.226H483.406V249.209H489.656C489.651 248.839 489.564 248.51 489.393 248.222C489.223 247.933 488.988 247.708 488.69 247.547C488.397 247.381 488.058 247.298 487.675 247.298C487.286 247.298 486.938 247.386 486.631 247.561C486.323 247.731 486.079 247.966 485.899 248.264C485.719 248.558 485.624 248.892 485.615 249.266V251.318C485.615 251.763 485.702 252.154 485.878 252.49C486.053 252.821 486.301 253.08 486.623 253.264C486.945 253.449 487.329 253.541 487.774 253.541C488.082 253.541 488.361 253.499 488.612 253.413C488.863 253.328 489.078 253.203 489.258 253.037C489.438 252.871 489.573 252.668 489.663 252.426L492.852 252.518C492.72 253.233 492.428 253.856 491.979 254.386C491.533 254.912 490.949 255.321 490.224 255.615C489.5 255.904 488.662 256.048 487.71 256.048ZM498.134 249.621V255.842H494.661V244.933H497.964V246.936H498.085C498.326 246.268 498.738 245.745 499.32 245.366C499.903 244.983 500.597 244.791 501.401 244.791C502.169 244.791 502.834 244.964 503.397 245.31C503.965 245.651 504.406 246.129 504.718 246.744C505.035 247.355 505.192 248.07 505.187 248.889V255.842H501.714V249.571C501.719 248.965 501.565 248.491 501.252 248.151C500.945 247.81 500.516 247.639 499.967 247.639C499.602 247.639 499.28 247.72 499.001 247.881C498.726 248.037 498.513 248.262 498.362 248.555C498.215 248.849 498.139 249.204 498.134 249.621ZM513.495 244.933V247.49H506.613V244.933H513.495ZM508.055 242.32H511.528V252.412C511.528 252.625 511.561 252.798 511.627 252.93C511.698 253.058 511.8 253.151 511.932 253.207C512.065 253.259 512.224 253.285 512.408 253.285C512.541 253.285 512.68 253.274 512.827 253.25C512.979 253.222 513.092 253.198 513.168 253.179L513.694 255.686C513.528 255.733 513.294 255.793 512.991 255.864C512.692 255.935 512.335 255.98 511.918 255.999C511.104 256.036 510.405 255.942 509.823 255.714C509.245 255.482 508.803 255.123 508.495 254.635C508.192 254.147 508.045 253.534 508.055 252.795V242.32ZM526.297 240.615L521.609 258.03H518.648L523.335 240.615H526.297ZM531.888 255.842V241.297H535.404V252.987H541.455V255.842H531.888ZM543.275 255.842V241.297H546.79V252.987H552.841V255.842H543.275ZM554.661 241.297H559.015L562.708 250.303H562.879L566.572 241.297H570.926V255.842H567.502V246.908H567.382L563.887 255.75H561.7L558.205 246.858H558.085V255.842H554.661V241.297ZM577.387 255.842V253.314L582.692 248.669C583.09 248.309 583.429 247.98 583.708 247.682C583.987 247.379 584.2 247.076 584.347 246.773C584.494 246.465 584.567 246.131 584.567 245.771C584.567 245.369 584.48 245.026 584.305 244.741C584.129 244.453 583.888 244.23 583.58 244.074C583.272 243.918 582.92 243.839 582.522 243.839C582.119 243.839 581.767 243.922 581.464 244.088C581.161 244.249 580.924 244.483 580.753 244.791C580.588 245.099 580.505 245.473 580.505 245.913H577.174C577.174 244.924 577.396 244.069 577.841 243.349C578.287 242.63 578.912 242.076 579.716 241.687C580.526 241.294 581.466 241.098 582.536 241.098C583.639 241.098 584.598 241.283 585.412 241.652C586.227 242.021 586.857 242.537 587.302 243.2C587.751 243.858 587.976 244.623 587.976 245.494C587.976 246.048 587.865 246.597 587.643 247.142C587.42 247.687 587.02 248.288 586.442 248.946C585.869 249.604 585.055 250.392 583.999 251.311L582.259 252.916V253.008H588.154V255.842H577.387Z" fill="#0F631C"/>
<rect x="426" y="347.342" width="191" height="63" rx="3" fill="#BCF1B9"/>
<rect x="426" y="347.342" width="191" height="63" rx="3" stroke="#50C645" stroke-width="2"/>
<path d="M457.886 385.842H454.107L459.015 371.297H463.695L468.603 385.842H464.825L461.409 374.962H461.295L457.886 385.842ZM457.382 380.118H465.279V382.788H457.382V380.118ZM474.571 390.16C473.534 390.16 472.646 390.016 471.907 389.727C471.169 389.438 470.589 389.043 470.167 388.541C469.746 388.039 469.493 387.471 469.407 386.837L472.696 386.652C472.757 386.874 472.871 387.069 473.037 387.234C473.207 387.4 473.427 387.528 473.697 387.618C473.972 387.708 474.294 387.753 474.663 387.753C475.246 387.753 475.726 387.611 476.105 387.327C476.488 387.047 476.68 386.557 476.68 385.856V383.939H476.559C476.422 384.275 476.214 384.576 475.934 384.841C475.655 385.106 475.307 385.314 474.89 385.466C474.479 385.617 474.005 385.693 473.47 385.693C472.675 385.693 471.945 385.508 471.282 385.139C470.624 384.765 470.096 384.187 469.699 383.406C469.306 382.62 469.109 381.609 469.109 380.374C469.109 379.1 469.313 378.051 469.72 377.227C470.127 376.399 470.66 375.785 471.318 375.388C471.981 374.99 472.693 374.791 473.456 374.791C474.029 374.791 474.519 374.891 474.926 375.089C475.338 375.284 475.676 375.535 475.942 375.842C476.207 376.15 476.408 376.47 476.545 376.801H476.645V374.933H480.104V385.885C480.104 386.808 479.872 387.587 479.407 388.222C478.943 388.856 478.295 389.337 477.461 389.663C476.628 389.995 475.665 390.16 474.571 390.16ZM474.677 383.165C475.099 383.165 475.459 383.053 475.757 382.831C476.055 382.608 476.285 382.289 476.446 381.872C476.607 381.455 476.687 380.956 476.687 380.374C476.687 379.782 476.607 379.273 476.446 378.847C476.29 378.416 476.06 378.084 475.757 377.852C475.459 377.62 475.099 377.504 474.677 377.504C474.247 377.504 473.882 377.623 473.584 377.859C473.285 378.096 473.058 378.43 472.902 378.861C472.75 379.287 472.675 379.791 472.675 380.374C472.675 380.956 472.753 381.455 472.909 381.872C473.065 382.289 473.29 382.608 473.584 382.831C473.882 383.053 474.247 383.165 474.677 383.165ZM487.417 386.048C486.276 386.048 485.291 385.823 484.463 385.374C483.639 384.919 483.004 384.273 482.559 383.435C482.119 382.592 481.899 381.59 481.899 380.43C481.899 379.303 482.121 378.319 482.566 377.476C483.011 376.628 483.639 375.97 484.448 375.501C485.258 375.028 486.212 374.791 487.311 374.791C488.087 374.791 488.797 374.912 489.441 375.153C490.085 375.395 490.642 375.752 491.11 376.226C491.579 376.699 491.944 377.284 492.204 377.98C492.464 378.671 492.595 379.464 492.595 380.359V381.226H483.113V379.209H489.363C489.358 378.839 489.271 378.51 489.1 378.222C488.93 377.933 488.695 377.708 488.397 377.547C488.104 377.381 487.765 377.298 487.382 377.298C486.993 377.298 486.645 377.386 486.338 377.561C486.03 377.731 485.786 377.966 485.606 378.264C485.426 378.558 485.331 378.892 485.322 379.266V381.318C485.322 381.763 485.41 382.154 485.585 382.49C485.76 382.821 486.008 383.08 486.33 383.264C486.652 383.449 487.036 383.541 487.481 383.541C487.789 383.541 488.068 383.499 488.319 383.413C488.57 383.328 488.785 383.203 488.965 383.037C489.145 382.871 489.28 382.668 489.37 382.426L492.559 382.518C492.427 383.233 492.135 383.856 491.686 384.386C491.24 384.912 490.656 385.321 489.931 385.615C489.207 385.904 488.369 386.048 487.417 386.048ZM497.841 379.621V385.842H494.368V374.933H497.671V376.936H497.792C498.033 376.268 498.445 375.745 499.028 375.366C499.61 374.983 500.304 374.791 501.108 374.791C501.876 374.791 502.541 374.964 503.104 375.31C503.672 375.651 504.113 376.129 504.425 376.744C504.742 377.355 504.899 378.07 504.894 378.889V385.842H501.421V379.571C501.426 378.965 501.272 378.491 500.959 378.151C500.652 377.81 500.223 377.639 499.674 377.639C499.309 377.639 498.987 377.72 498.708 377.881C498.433 378.037 498.22 378.262 498.069 378.555C497.922 378.849 497.846 379.204 497.841 379.621ZM513.202 374.933V377.49H506.32V374.933H513.202ZM507.762 372.32H511.235V382.412C511.235 382.625 511.268 382.798 511.334 382.93C511.405 383.058 511.507 383.151 511.639 383.207C511.772 383.259 511.931 383.285 512.115 383.285C512.248 383.285 512.387 383.274 512.534 383.25C512.686 383.222 512.799 383.198 512.875 383.179L513.401 385.686C513.235 385.733 513.001 385.793 512.698 385.864C512.399 385.935 512.042 385.98 511.625 385.999C510.811 386.036 510.112 385.942 509.53 385.714C508.952 385.482 508.51 385.123 508.202 384.635C507.899 384.147 507.752 383.534 507.762 382.795V372.32ZM526.004 370.615L521.316 388.03H518.355L523.042 370.615H526.004ZM531.595 385.842V371.297H535.111V382.987H541.162V385.842H531.595ZM542.982 385.842V371.297H546.497V382.987H552.548V385.842H542.982ZM554.368 371.297H558.722L562.415 380.303H562.586L566.279 371.297H570.633V385.842H567.209V376.908H567.089L563.594 385.75H561.407L557.912 376.858H557.792V385.842H554.368V371.297ZM582.627 386.041C581.519 386.041 580.536 385.852 579.679 385.473C578.827 385.089 578.155 384.562 577.662 383.889C577.17 383.217 576.919 382.443 576.909 381.567H580.446C580.46 381.884 580.562 382.166 580.752 382.412C580.941 382.653 581.199 382.843 581.526 382.98C581.852 383.117 582.224 383.186 582.641 383.186C583.057 383.186 583.424 383.113 583.742 382.966C584.064 382.814 584.315 382.608 584.494 382.348C584.674 382.083 584.762 381.78 584.757 381.439C584.762 381.098 584.665 380.795 584.466 380.53C584.267 380.265 583.985 380.059 583.621 379.912C583.261 379.765 582.835 379.692 582.343 379.692H580.929V377.192H582.343C582.773 377.192 583.152 377.121 583.479 376.979C583.81 376.837 584.068 376.638 584.253 376.382C584.438 376.122 584.528 375.823 584.523 375.487C584.528 375.16 584.45 374.874 584.289 374.628C584.132 374.377 583.912 374.183 583.628 374.045C583.349 373.908 583.024 373.839 582.655 373.839C582.267 373.839 581.914 373.908 581.597 374.045C581.284 374.183 581.036 374.377 580.851 374.628C580.666 374.879 580.569 375.17 580.56 375.501H577.2C577.21 374.635 577.451 373.873 577.925 373.214C578.398 372.552 579.042 372.033 579.857 371.659C580.676 371.285 581.609 371.098 582.655 371.098C583.697 371.098 584.613 371.28 585.404 371.645C586.194 372.009 586.81 372.507 587.25 373.136C587.691 373.761 587.911 374.469 587.911 375.26C587.915 376.079 587.648 376.754 587.108 377.284C586.573 377.814 585.884 378.141 585.041 378.264V378.378C586.168 378.51 587.018 378.875 587.591 379.472C588.169 380.068 588.455 380.814 588.45 381.709C588.45 382.552 588.202 383.3 587.705 383.953C587.212 384.602 586.526 385.113 585.645 385.487C584.769 385.856 583.763 386.041 582.627 386.041Z" fill="#0F631C"/>
<path d="M411.061 251.061C411.646 250.475 411.646 249.525 411.061 248.939L401.515 239.393C400.929 238.808 399.979 238.808 399.393 239.393C398.808 239.979 398.808 240.929 399.393 241.515L407.879 250L399.393 258.485C398.808 259.071 398.808 260.021 399.393 260.607C399.979 261.192 400.929 261.192 401.515 260.607L411.061 251.061ZM365 251.5L410 251.5L410 248.5L365 248.5L365 251.5Z" fill="black"/>
<path d="M184.069 250.689C184.65 250.098 184.643 249.149 184.052 248.568L174.429 239.099C173.839 238.518 172.889 238.526 172.308 239.116C171.727 239.707 171.735 240.656 172.325 241.237L180.879 249.654L172.462 258.207C171.881 258.798 171.889 259.748 172.479 260.329C173.07 260.91 174.02 260.902 174.601 260.311L184.069 250.689ZM138.012 251.5L183.012 251.137L182.988 248.137L137.988 248.5L138.012 251.5Z" fill="black"/>
<path d="M683.062 250.697C683.647 250.112 683.647 249.162 683.062 248.576L673.516 239.03C672.93 238.444 671.98 238.444 671.394 239.03C670.808 239.616 670.808 240.566 671.394 241.151L679.88 249.637L671.394 258.122C670.808 258.708 670.808 259.658 671.394 260.243C671.98 260.829 672.93 260.829 673.516 260.243L683.062 250.697ZM632 251.137H682.001V248.137H632V251.137Z" fill="black"/>
<path d="M914.062 249.697C914.647 249.112 914.647 248.162 914.062 247.576L904.516 238.03C903.93 237.444 902.98 237.444 902.394 238.03C901.808 238.616 901.808 239.566 902.394 240.151L910.88 248.637L902.394 257.122C901.808 257.708 901.808 258.658 902.394 259.243C902.98 259.829 903.93 259.829 904.516 259.243L914.062 249.697ZM863 250.137H913.001V247.137H863V250.137Z" fill="black"/>
<path d="M273 146.637L271.5 146.637L273 146.637ZM300 119.637L300 118.137L300 119.637ZM413.561 120.697C414.146 120.112 414.146 119.162 413.561 118.576L404.015 109.03C403.429 108.444 402.479 108.444 401.893 109.03C401.308 109.616 401.308 110.566 401.893 111.151L410.379 119.637L401.893 128.122C401.308 128.708 401.308 129.658 401.893 130.243C402.479 130.829 403.429 130.829 404.015 130.243L413.561 120.697ZM274.5 158.5L274.5 146.637L271.5 146.637L271.5 158.5L274.5 158.5ZM300 121.137L412.5 121.137L412.5 118.137L300 118.137L300 121.137ZM274.5 146.637C274.5 132.554 285.917 121.137 300 121.137L300 118.137C284.26 118.137 271.5 130.897 271.5 146.637L274.5 146.637Z" fill="black"/>
<path d="M273 352.637L271.5 352.637L273 352.637ZM300 379.637L300 378.137L300 379.637ZM412.561 380.697C413.146 380.112 413.146 379.162 412.561 378.576L403.015 369.03C402.429 368.444 401.479 368.444 400.893 369.03C400.308 369.616 400.308 370.566 400.893 371.151L409.379 379.637L400.893 388.122C400.308 388.708 400.308 389.658 400.893 390.243C401.479 390.829 402.429 390.829 403.015 390.243L412.561 380.697ZM271.5 339L271.5 352.637L274.5 352.637L274.5 339L271.5 339ZM300 381.137L411.5 381.137L411.5 378.137L300 378.137L300 381.137ZM271.5 352.637C271.5 368.377 284.26 381.137 300 381.137L300 378.137C285.917 378.137 274.5 366.72 274.5 352.637L271.5 352.637Z" fill="black"/>
<path d="M745.5 119.342L745.5 120.842L745.5 119.342ZM772.5 146.343L774 146.343L774 146.343L772.5 146.343ZM771.439 162.697C772.025 163.283 772.975 163.283 773.56 162.697L783.106 153.151C783.692 152.566 783.692 151.616 783.106 151.03C782.521 150.444 781.571 150.444 780.985 151.03L772.5 159.515L764.015 151.03C763.429 150.444 762.479 150.444 761.893 151.03C761.307 151.616 761.307 152.566 761.893 153.151L771.439 162.697ZM634 120.842L745.5 120.842L745.5 117.842L634 117.842L634 120.842ZM771 146.342L771 161.637L774 161.637L774 146.343L771 146.342ZM745.5 120.842C759.583 120.842 771 132.259 771 146.343L774 146.343C774 130.602 761.24 117.842 745.5 117.842L745.5 120.842Z" fill="black"/>
<path d="M745.5 379.342L745.5 380.842L745.5 379.342ZM772.5 352.342L774 352.342L772.5 352.342ZM773.561 336.076C772.975 335.49 772.025 335.49 771.439 336.076L761.893 345.622C761.308 346.208 761.308 347.158 761.893 347.743C762.479 348.329 763.429 348.329 764.015 347.743L772.5 339.258L780.985 347.743C781.571 348.329 782.521 348.329 783.107 347.743C783.692 347.158 783.692 346.208 783.107 345.622L773.561 336.076ZM634 380.842L745.5 380.842L745.5 377.842L634 377.842L634 380.842ZM774 352.342L774 337.137L771 337.137L771 352.342L774 352.342ZM745.5 380.842C761.24 380.842 774 368.082 774 352.342L771 352.342C771 366.426 759.583 377.842 745.5 377.842L745.5 380.842Z" fill="black"/>
<rect x="773.782" y="173.414" width="108" height="108" rx="3" transform="rotate(45 773.782 173.414)" fill="#FFE0AD"/>
<rect x="773.782" y="173.414" width="108" height="108" rx="3" transform="rotate(45 773.782 173.414)" stroke="#DB7501" stroke-width="2"/>
<path d="M721.509 249.363H717.73L722.638 234.818H727.319L732.226 249.363H728.448L725.032 238.483H724.918L721.509 249.363ZM721.005 243.639H728.902V246.309H721.005V243.639ZM738.194 253.681C737.157 253.681 736.269 253.537 735.531 253.248C734.792 252.959 734.212 252.564 733.79 252.062C733.369 251.56 733.116 250.992 733.031 250.358L736.319 250.173C736.38 250.395 736.494 250.59 736.66 250.755C736.83 250.921 737.05 251.049 737.32 251.139C737.595 251.229 737.917 251.274 738.286 251.274C738.869 251.274 739.349 251.132 739.728 250.848C740.112 250.568 740.303 250.078 740.303 249.377V247.46H740.183C740.045 247.796 739.837 248.097 739.558 248.362C739.278 248.627 738.93 248.835 738.513 248.987C738.102 249.138 737.628 249.214 737.093 249.214C736.298 249.214 735.568 249.029 734.906 248.66C734.247 248.286 733.719 247.708 733.322 246.927C732.929 246.141 732.732 245.13 732.732 243.895C732.732 242.621 732.936 241.572 733.343 240.748C733.75 239.92 734.283 239.306 734.941 238.909C735.604 238.511 736.317 238.312 737.079 238.312C737.652 238.312 738.142 238.412 738.549 238.61C738.961 238.805 739.299 239.056 739.565 239.363C739.83 239.671 740.031 239.991 740.168 240.322H740.268V238.454H743.727V249.406C743.727 250.329 743.495 251.108 743.031 251.743C742.567 252.377 741.918 252.858 741.085 253.184C740.251 253.516 739.288 253.681 738.194 253.681ZM738.3 246.686C738.722 246.686 739.082 246.574 739.38 246.352C739.678 246.129 739.908 245.81 740.069 245.393C740.23 244.976 740.31 244.477 740.31 243.895C740.31 243.303 740.23 242.794 740.069 242.368C739.913 241.937 739.683 241.605 739.38 241.373C739.082 241.141 738.722 241.025 738.3 241.025C737.87 241.025 737.505 241.144 737.207 241.38C736.908 241.617 736.681 241.951 736.525 242.382C736.373 242.808 736.298 243.312 736.298 243.895C736.298 244.477 736.376 244.976 736.532 245.393C736.688 245.81 736.913 246.129 737.207 246.352C737.505 246.574 737.87 246.686 738.3 246.686ZM751.026 253.681C749.989 253.681 749.101 253.537 748.363 253.248C747.624 252.959 747.044 252.564 746.623 252.062C746.201 251.56 745.948 250.992 745.863 250.358L749.151 250.173C749.212 250.395 749.326 250.59 749.492 250.755C749.662 250.921 749.882 251.049 750.152 251.139C750.427 251.229 750.749 251.274 751.118 251.274C751.701 251.274 752.181 251.132 752.56 250.848C752.944 250.568 753.135 250.078 753.135 249.377V247.46H753.015C752.877 247.796 752.669 248.097 752.39 248.362C752.11 248.627 751.762 248.835 751.346 248.987C750.934 249.138 750.46 249.214 749.925 249.214C749.13 249.214 748.4 249.029 747.738 248.66C747.079 248.286 746.551 247.708 746.154 246.927C745.761 246.141 745.564 245.13 745.564 243.895C745.564 242.621 745.768 241.572 746.175 240.748C746.582 239.92 747.115 239.306 747.773 238.909C748.436 238.511 749.149 238.312 749.911 238.312C750.484 238.312 750.974 238.412 751.381 238.61C751.793 238.805 752.132 239.056 752.397 239.363C752.662 239.671 752.863 239.991 753 240.322H753.1V238.454H756.559V249.406C756.559 250.329 756.327 251.108 755.863 251.743C755.399 252.377 754.75 252.858 753.917 253.184C753.083 253.516 752.12 253.681 751.026 253.681ZM751.132 246.686C751.554 246.686 751.914 246.574 752.212 246.352C752.51 246.129 752.74 245.81 752.901 245.393C753.062 244.976 753.142 244.477 753.142 243.895C753.142 243.303 753.062 242.794 752.901 242.368C752.745 241.937 752.515 241.605 752.212 241.373C751.914 241.141 751.554 241.025 751.132 241.025C750.702 241.025 750.337 241.144 750.039 241.38C749.74 241.617 749.513 241.951 749.357 242.382C749.205 242.808 749.13 243.312 749.13 243.895C749.13 244.477 749.208 244.976 749.364 245.393C749.52 245.81 749.745 246.129 750.039 246.352C750.337 246.574 750.702 246.686 751.132 246.686ZM758.773 249.363V238.454H762.146V240.443H762.26C762.459 239.723 762.783 239.188 763.233 238.838C763.683 238.483 764.206 238.305 764.803 238.305C764.964 238.305 765.129 238.317 765.3 238.341C765.47 238.359 765.629 238.39 765.776 238.433V241.451C765.61 241.395 765.392 241.35 765.122 241.316C764.857 241.283 764.62 241.267 764.412 241.267C764 241.267 763.628 241.359 763.297 241.544C762.97 241.724 762.712 241.977 762.523 242.304C762.338 242.626 762.246 243.004 762.246 243.44V249.363H758.773ZM771.724 249.569C770.583 249.569 769.598 249.344 768.769 248.895C767.945 248.44 767.311 247.794 766.866 246.956C766.425 246.113 766.205 245.111 766.205 243.951C766.205 242.824 766.428 241.84 766.873 240.997C767.318 240.149 767.945 239.491 768.755 239.022C769.565 238.549 770.519 238.312 771.617 238.312C772.394 238.312 773.104 238.433 773.748 238.674C774.392 238.916 774.948 239.273 775.417 239.747C775.886 240.22 776.25 240.805 776.511 241.501C776.771 242.192 776.901 242.985 776.901 243.88V244.747H767.42V242.73H773.67C773.665 242.36 773.577 242.031 773.407 241.743C773.237 241.454 773.002 241.229 772.704 241.068C772.41 240.902 772.072 240.819 771.688 240.819C771.3 240.819 770.952 240.907 770.644 241.082C770.336 241.252 770.093 241.487 769.913 241.785C769.733 242.079 769.638 242.413 769.629 242.787V244.839C769.629 245.284 769.716 245.675 769.891 246.011C770.067 246.342 770.315 246.6 770.637 246.785C770.959 246.97 771.343 247.062 771.788 247.062C772.095 247.062 772.375 247.02 772.626 246.934C772.877 246.849 773.092 246.724 773.272 246.558C773.452 246.392 773.587 246.189 773.677 245.947L776.866 246.039C776.733 246.754 776.442 247.377 775.992 247.907C775.547 248.433 774.962 248.842 774.238 249.136C773.513 249.425 772.675 249.569 771.724 249.569ZM783.76 253.681C782.723 253.681 781.836 253.537 781.097 253.248C780.358 252.959 779.778 252.564 779.357 252.062C778.935 251.56 778.682 250.992 778.597 250.358L781.885 250.173C781.947 250.395 782.06 250.59 782.226 250.755C782.397 250.921 782.617 251.049 782.887 251.139C783.161 251.229 783.483 251.274 783.853 251.274C784.435 251.274 784.916 251.132 785.294 250.848C785.678 250.568 785.87 250.078 785.87 249.377V247.46H785.749C785.612 247.796 785.403 248.097 785.124 248.362C784.845 248.627 784.497 248.835 784.08 248.987C783.668 249.138 783.194 249.214 782.659 249.214C781.864 249.214 781.135 249.029 780.472 248.66C779.814 248.286 779.286 247.708 778.888 246.927C778.495 246.141 778.299 245.13 778.299 243.895C778.299 242.621 778.502 241.572 778.909 240.748C779.317 239.92 779.849 239.306 780.507 238.909C781.17 238.511 781.883 238.312 782.645 238.312C783.218 238.312 783.708 238.412 784.115 238.61C784.527 238.805 784.866 239.056 785.131 239.363C785.396 239.671 785.597 239.991 785.735 240.322H785.834V238.454H789.293V249.406C789.293 250.329 789.061 251.108 788.597 251.743C788.133 252.377 787.484 252.858 786.651 253.184C785.818 253.516 784.854 253.681 783.76 253.681ZM783.867 246.686C784.288 246.686 784.648 246.574 784.946 246.352C785.245 246.129 785.474 245.81 785.635 245.393C785.796 244.976 785.877 244.477 785.877 243.895C785.877 243.303 785.796 242.794 785.635 242.368C785.479 241.937 785.249 241.605 784.946 241.373C784.648 241.141 784.288 241.025 783.867 241.025C783.436 241.025 783.071 241.144 782.773 241.38C782.475 241.617 782.248 241.951 782.091 242.382C781.94 242.808 781.864 243.312 781.864 243.895C781.864 244.477 781.942 244.976 782.098 245.393C782.255 245.81 782.48 246.129 782.773 246.352C783.071 246.574 783.436 246.686 783.867 246.686ZM794.582 249.548C793.886 249.548 793.268 249.432 792.729 249.2C792.194 248.963 791.77 248.608 791.457 248.135C791.15 247.656 790.996 247.057 790.996 246.338C790.996 245.732 791.102 245.22 791.315 244.804C791.528 244.387 791.822 244.048 792.196 243.788C792.57 243.528 793.001 243.331 793.489 243.199C793.976 243.061 794.497 242.969 795.051 242.922C795.671 242.865 796.171 242.806 796.55 242.744C796.928 242.678 797.203 242.585 797.374 242.467C797.549 242.344 797.636 242.171 797.636 241.949V241.913C797.636 241.548 797.511 241.267 797.26 241.068C797.009 240.869 796.67 240.77 796.244 240.77C795.785 240.77 795.416 240.869 795.136 241.068C794.857 241.267 794.679 241.541 794.604 241.892L791.401 241.778C791.495 241.115 791.739 240.523 792.132 240.002C792.53 239.477 793.074 239.065 793.766 238.767C794.462 238.464 795.297 238.312 796.273 238.312C796.969 238.312 797.61 238.395 798.197 238.561C798.785 238.722 799.296 238.958 799.732 239.271C800.167 239.579 800.503 239.958 800.74 240.407C800.982 240.857 801.102 241.371 801.102 241.949V249.363H797.835V247.843H797.75C797.556 248.213 797.307 248.525 797.004 248.781C796.706 249.037 796.353 249.228 795.946 249.356C795.544 249.484 795.089 249.548 794.582 249.548ZM795.655 247.275C796.029 247.275 796.365 247.199 796.663 247.048C796.966 246.896 797.208 246.688 797.388 246.423C797.568 246.153 797.658 245.841 797.658 245.485V244.449C797.558 244.501 797.437 244.548 797.295 244.591C797.158 244.633 797.007 244.673 796.841 244.711C796.675 244.749 796.505 244.782 796.33 244.811C796.154 244.839 795.986 244.865 795.825 244.889C795.499 244.941 795.219 245.021 794.987 245.13C794.76 245.239 794.585 245.381 794.462 245.556C794.343 245.727 794.284 245.931 794.284 246.167C794.284 246.527 794.412 246.802 794.668 246.991C794.928 247.181 795.257 247.275 795.655 247.275ZM809.384 238.454V241.011H802.501V238.454H809.384ZM803.943 235.841H807.416V245.933C807.416 246.146 807.449 246.319 807.516 246.451C807.587 246.579 807.688 246.672 807.821 246.728C807.954 246.78 808.112 246.806 808.297 246.806C808.429 246.806 808.569 246.795 808.716 246.771C808.867 246.743 808.981 246.719 809.057 246.7L809.582 249.207C809.417 249.254 809.182 249.314 808.879 249.385C808.581 249.456 808.223 249.501 807.807 249.52C806.992 249.557 806.294 249.463 805.712 249.235C805.134 249.003 804.691 248.644 804.384 248.156C804.08 247.668 803.934 247.055 803.943 246.316V235.841ZM816.131 249.569C814.985 249.569 814 249.335 813.176 248.866C812.357 248.393 811.725 247.734 811.28 246.892C810.839 246.044 810.619 245.062 810.619 243.944C810.619 242.822 810.839 241.84 811.28 240.997C811.725 240.149 812.357 239.491 813.176 239.022C814 238.549 814.985 238.312 816.131 238.312C817.277 238.312 818.259 238.549 819.078 239.022C819.902 239.491 820.534 240.149 820.974 240.997C821.42 241.84 821.642 242.822 821.642 243.944C821.642 245.062 821.42 246.044 820.974 246.892C820.534 247.734 819.902 248.393 819.078 248.866C818.259 249.335 817.277 249.569 816.131 249.569ZM816.152 246.949C816.569 246.949 816.921 246.821 817.21 246.565C817.499 246.309 817.719 245.954 817.871 245.5C818.027 245.045 818.105 244.52 818.105 243.923C818.105 243.317 818.027 242.787 817.871 242.332C817.719 241.877 817.499 241.522 817.21 241.267C816.921 241.011 816.569 240.883 816.152 240.883C815.721 240.883 815.357 241.011 815.058 241.267C814.765 241.522 814.54 241.877 814.384 242.332C814.232 242.787 814.156 243.317 814.156 243.923C814.156 244.52 814.232 245.045 814.384 245.5C814.54 245.954 814.765 246.309 815.058 246.565C815.357 246.821 815.721 246.949 816.152 246.949ZM823.421 249.363V238.454H826.795V240.443H826.908C827.107 239.723 827.432 239.188 827.881 238.838C828.331 238.483 828.854 238.305 829.451 238.305C829.612 238.305 829.778 238.317 829.948 238.341C830.119 238.359 830.277 238.39 830.424 238.433V241.451C830.258 241.395 830.04 241.35 829.771 241.316C829.505 241.283 829.269 241.267 829.06 241.267C828.648 241.267 828.277 241.359 827.945 241.544C827.619 241.724 827.361 241.977 827.171 242.304C826.986 242.626 826.894 243.004 826.894 243.44V249.363H823.421ZM757.205 258.136L752.517 275.551H749.556L754.243 258.136H757.205ZM762.796 273.363V258.818H766.312V270.508H772.363V273.363H762.796ZM774.183 273.363V258.818H777.699V270.508H783.75V273.363H774.183ZM785.57 258.818H789.923L793.616 267.824H793.787L797.48 258.818H801.834V273.363H798.411V264.429H798.29L794.795 273.271H792.608L789.114 264.379H788.993V273.363H785.57V258.818Z" fill="#DB7501"/>
</svg>
